<?xml version="1.0" standalone="no"?>
<!DOCTYPE svg PUBLIC "-//W3C//DTD SVG 20010904//EN"
 "http://www.w3.org/TR/2001/REC-SVG-20010904/DTD/svg10.dtd">
<svg version="1.0" xmlns="http://www.w3.org/2000/svg"
 width="500.000000pt" height="500.000000pt" viewBox="0 0 500.000000 500.000000"
 preserveAspectRatio="xMidYMid meet">
<metadata>
Created by potrace 1.14, written by Peter Selinger 2001-2017
</metadata>
<g transform="translate(0.000000,500.000000) scale(0.100000,-0.100000)"
fill="#000000" stroke="none">
<path d="M1894 4032 c-63 -22 -100 -51 -136 -105 -24 -36 -31 -62 -42 -151 -4
-29 12 -107 30 -143 23 -51 81 -100 143 -124 46 -17 70 -20 136 -16 92 6 133
21 192 71 60 53 87 127 80 227 -8 119 -53 186 -156 232 -64 28 -182 33 -247 9z
m186 -132 c93 -47 101 -197 14 -251 -75 -46 -185 -24 -217 44 -20 41 -22 118
-4 149 39 71 131 97 207 58z"/>
<path d="M2879 4044 c-45 -8 -132 -67 -160 -109 -37 -53 -48 -104 -44 -187 9
-168 128 -268 309 -256 166 11 265 108 270 268 5 121 -51 215 -154 262 -44 20
-163 32 -221 22z m169 -151 c80 -59 80 -188 -1 -247 -20 -15 -42 -20 -86 -20
-98 1 -146 47 -145 143 0 66 21 103 73 132 45 24 121 21 159 -8z"/>
<path d="M2740 3432 c-19 -1 -135 -23 -256 -48 -397 -80 -509 -86 -697 -40
-60 14 -125 26 -145 26 l-37 -1 60 -55 c57 -53 171 -118 225 -127 14 -3 43 -8
65 -13 22 -4 91 -8 154 -8 l115 -1 0 -259 c1 -293 -7 -267 90 -280 26 -4 70
-15 97 -25 l49 -19 0 299 c0 292 0 299 20 299 20 0 20 -7 20 -308 l0 -308 30
-18 c17 -9 42 -29 57 -44 20 -22 24 -23 18 -7 -37 96 -65 188 -71 230 -18 139
-7 151 43 49 43 -86 152 -297 156 -300 1 -1 2 66 1 150 -1 148 -2 153 -29 196
-54 85 -69 134 -69 230 -1 69 9 120 23 120 4 0 21 -18 36 -40 15 -22 30 -38
33 -35 3 3 6 40 6 82 l1 77 35 8 c19 4 85 11 145 14 108 7 112 6 213 -29 102
-35 104 -35 123 -16 27 27 24 37 -26 85 -47 46 -117 83 -200 107 -46 13 -192
18 -285 9z"/>
<path d="M1269 3245 c-2 -299 2 -1260 7 -1295 11 -100 87 -299 114 -301 5 0
34 -1 63 -1 28 0 63 -5 76 -10 13 -5 26 -7 28 -4 9 9 -33 48 -72 68 -69 35
-144 97 -158 131 -26 62 -27 93 -2 38 14 -30 33 -60 43 -67 9 -8 43 -32 76
-55 73 -52 62 -23 -17 44 -30 26 -67 67 -81 92 -15 25 -31 45 -36 45 -9 0 -5
38 5 48 3 3 15 -4 28 -15 12 -11 36 -28 52 -36 17 -9 26 -16 20 -16 -5 -1 -29
10 -52 24 -24 13 -43 21 -43 18 0 -24 71 -119 124 -166 35 -31 67 -57 69 -57
8 0 -13 82 -30 117 -8 18 -19 33 -24 33 -5 0 -9 6 -9 13 0 6 14 -2 30 -20 30
-34 50 -88 50 -139 0 -23 19 -56 76 -130 42 -54 90 -123 106 -152 29 -50 48
-60 46 -24 -1 9 2 34 7 54 6 34 4 40 -30 75 -21 21 -46 58 -57 82 -10 24 -34
60 -54 80 -35 36 -86 130 -100 186 -5 17 -10 336 -11 710 -2 373 -5 681 -7
683 -2 2 -56 4 -120 5 l-116 2 -1 -60z"/>
<path d="M3473 3302 l-23 -3 0 -307 0 -306 46 92 c25 51 50 92 55 92 5 0 8
-26 8 -57 -1 -48 -3 -53 -9 -28 -4 17 -8 22 -9 12 0 -10 -5 -16 -10 -13 -7 5
-9 -249 -2 -429 2 -52 4 -57 13 -35 6 16 7 62 3 125 -12 167 -10 305 3 305 4
0 8 -42 8 -92 0 -51 4 -140 8 -198 7 -93 6 -111 -12 -155 -10 -27 -22 -68 -25
-90 -5 -28 1 -19 17 30 30 93 66 161 110 209 l36 39 0 403 c0 378 -1 404 -17
405 -98 3 -182 3 -200 1z"/>
<path d="M2650 3143 c0 -7 5 -13 10 -13 6 0 10 -8 10 -17 0 -16 -2 -16 -11 -3
-8 11 -9 -7 -5 -65 5 -77 31 -166 62 -209 14 -20 14 -20 15 -1 4 66 2 85 -17
130 -34 79 -37 106 -6 40 l29 -60 -4 49 c-2 26 -10 60 -18 75 -20 38 -64 88
-65 74z"/>
<path d="M2560 2708 c21 -101 49 -175 101 -269 21 -40 39 -75 39 -78 0 -3 7
-14 15 -25 12 -16 13 -10 11 50 -2 58 -9 83 -44 154 -22 47 -57 112 -77 145
-20 33 -40 70 -45 83 -17 41 -17 23 0 -60z m29 -33 c0 -5 -4 -3 -9 5 -5 8 -9
22 -9 30 0 16 17 -16 18 -35z m21 -50 c0 -5 -5 -3 -10 5 -5 8 -10 20 -10 25 0
6 5 3 10 -5 5 -8 10 -19 10 -25z m69 -150 c0 -5 -15 19 -34 55 -19 36 -34 70
-34 75 0 6 15 -19 34 -55 19 -36 34 -69 34 -75z m40 -95 c0 -8 -8 5 -19 29
-11 24 -20 46 -20 50 1 12 39 -64 39 -79z"/>
<path d="M3506 2758 c-2 -7 -14 -40 -27 -73 -20 -52 -23 -81 -25 -225 -2 -144
0 -169 17 -201 38 -75 39 -72 38 126 -2 246 -1 329 5 358 5 27 -1 38 -8 15z"/>
<path d="M2226 2611 c-3 -5 0 -12 6 -14 10 -4 10 -6 1 -6 -7 -1 -13 -5 -13
-11 0 -13 49 -58 85 -77 25 -13 122 -41 148 -43 4 0 7 22 7 49 0 47 -1 49 -37
64 -21 8 -65 20 -98 27 -33 6 -67 14 -77 16 -9 3 -19 1 -22 -5z m69 -31 c13
-5 14 -9 5 -9 -8 0 -24 4 -35 9 -13 5 -14 9 -5 9 8 0 24 -4 35 -9z"/>
<path d="M2226 2412 c2 -70 3 -136 3 -147 0 -11 0 -42 0 -68 0 -80 49 -197 83
-197 7 0 6 5 -2 15 -6 8 -9 19 -5 25 10 16 -40 179 -51 167 -3 -3 6 -40 21
-82 15 -42 25 -78 23 -80 -8 -9 -53 140 -53 178 -1 20 2 34 5 30 13 -16 60
-135 60 -153 0 -43 17 -25 28 30 7 32 37 106 67 166 61 119 68 153 33 155 -58
3 -85 10 -134 34 -30 15 -54 30 -54 35 0 4 -6 10 -13 13 -11 4 -13 -19 -11
-121z"/>
<path d="M2502 2501 c-2 -27 1 -38 12 -38 8 0 12 6 9 13 -2 6 1 15 7 19 7 4
14 -2 17 -14 5 -21 43 -31 43 -12 0 15 -42 41 -65 41 -15 0 -16 3 -7 9 11 7
11 9 0 14 -10 3 -15 -5 -16 -32z"/>
<path d="M2512 2438 c-7 -7 -12 -23 -12 -37 0 -21 2 -23 11 -11 9 12 9 11 3
-5 -4 -11 -9 -49 -11 -85 -2 -64 -2 -64 12 -33 17 37 26 82 30 141 2 43 -9 54
-33 30z"/>
<path d="M2558 2377 c-3 -50 -13 -91 -31 -131 -24 -53 -27 -70 -27 -175 1
-138 2 -137 83 31 29 59 56 107 61 108 25 1 -23 -250 -55 -284 -18 -20 -8 -29
11 -11 20 19 39 30 98 60 36 19 34 9 35 202 0 111 -1 113 -30 147 -17 19 -45
55 -62 80 -23 32 -39 46 -55 46 -22 0 -24 -5 -28 -73z"/>
<path d="M3608 2357 c-34 -69 -83 -235 -73 -245 2 -2 7 9 10 24 3 16 28 87 55
159 27 71 48 131 46 132 -2 2 -19 -30 -38 -70z"/>
<path d="M3651 2398 c-31 -79 -101 -291 -97 -295 13 -13 69 59 88 112 17 50
37 215 26 215 -2 0 -9 -15 -17 -32z"/>
<path d="M3682 2355 c-2 -38 -10 -88 -18 -110 -9 -22 -18 -51 -21 -64 -3 -12
-24 -42 -45 -65 -22 -22 -44 -49 -50 -60 -8 -15 -5 -73 8 -118 1 -5 2 -18 3
-30 2 -17 8 -10 26 30 13 29 42 79 65 111 l41 58 -4 159 c-1 87 -4 128 -5 89z"/>
<path d="M2408 2259 c-48 -99 -74 -177 -65 -201 2 -7 0 -23 -4 -36 -6 -15 -5
-21 1 -17 12 8 13 -8 1 -20 -5 -6 -11 -48 -15 -95 -6 -84 -12 -133 -21 -158
-2 -7 1 -24 7 -38 10 -22 9 -28 -14 -47 -22 -18 -39 -49 -43 -77 -1 -10 -105
-159 -115 -165 -18 -11 -10 -24 13 -19 12 2 38 7 57 10 60 10 103 25 178 61
l72 36 0 110 0 109 -40 -36 c-51 -46 -149 -111 -156 -103 -3 3 16 18 43 33
141 82 145 90 151 314 2 97 3 184 1 194 -3 14 -15 4 -53 -43 -26 -34 -51 -60
-54 -56 -3 3 10 22 30 43 62 66 78 96 78 149 l-1 48 -42 -77 c-24 -43 -47 -81
-52 -85 -4 -5 15 36 44 89 41 77 52 106 49 135 -3 37 -4 36 -50 -58z"/>
<path d="M3450 2125 c-1 -66 -3 -131 -5 -145 -13 -96 -43 -173 -92 -238 l-25
-33 49 -55 c26 -31 59 -69 74 -86 34 -40 46 -24 54 72 3 41 13 100 23 130 18
61 17 113 -4 213 -8 38 -14 85 -14 106 0 60 -10 96 -36 127 l-23 29 -1 -120z"/>
<path d="M2620 2135 c-6 -8 -8 -20 -4 -26 4 -7 3 -9 -2 -6 -6 3 -33 -36 -61
-87 -48 -85 -52 -98 -51 -155 l1 -62 18 30 c49 81 83 169 107 279 11 46 10 49
-8 27z m-29 -102 c-12 -20 -14 -14 -5 12 4 9 9 14 11 11 3 -2 0 -13 -6 -23z
m-30 -70 c-11 -21 -20 -35 -21 -31 0 12 33 78 38 74 2 -2 -6 -21 -17 -43z
m-28 -58 c-3 -9 -8 -14 -10 -11 -3 3 -2 9 2 15 9 16 15 13 8 -4z"/>
<path d="M2225 2038 c6 -90 12 -127 30 -199 24 -93 32 -102 40 -44 4 28 10 73
14 102 8 52 -7 113 -28 113 -5 0 -19 20 -31 45 -12 25 -23 45 -25 45 -2 0 -2
-28 0 -62z"/>
<path d="M3647 2018 c-19 -29 -46 -78 -60 -108 -38 -84 -74 -261 -60 -297 13
-35 108 141 138 255 14 58 31 202 22 202 -2 0 -20 -24 -40 -52z"/>
<path d="M2716 1963 c-4 -5 -13 -8 -19 -8 -7 -1 -11 -6 -9 -13 1 -7 -1 -11 -5
-10 -5 1 -25 -6 -45 -15 -37 -16 -51 -36 -25 -38 6 0 1 -5 -13 -10 -14 -5 -42
-33 -62 -61 l-38 -52 0 -136 0 -137 56 -27 c31 -15 73 -34 95 -41 l39 -14 -15
23 c-8 12 -12 26 -8 29 19 19 181 -13 273 -55 46 -20 113 -24 180 -10 l34 8
-39 24 c-22 13 -71 54 -110 91 -67 64 -73 68 -130 74 -73 9 -169 38 -213 65
l-32 20 21 42 c31 61 59 148 48 149 -5 1 -13 2 -18 3 -5 0 -13 4 -17 8 -3 4 2
6 13 4 30 -6 39 5 46 52 5 44 5 47 -7 35z"/>
<path d="M3258 1655 c-25 -18 -77 -40 -115 -50 -37 -10 -69 -19 -71 -21 -2 -1
21 -42 51 -90 44 -73 58 -89 78 -89 21 0 25 6 30 45 4 30 7 37 9 20 2 -14 3
-31 3 -37 -1 -7 8 -13 18 -13 13 0 19 8 20 23 1 17 2 18 6 4 4 -15 12 -13 73
19 104 54 107 60 59 114 -22 25 -52 60 -66 78 -14 17 -30 32 -37 31 -6 -1 -32
-16 -58 -34z m31 -101 c4 -16 5 -38 0 -49 -6 -17 -8 -15 -8 10 -1 17 -5 37
-10 45 -6 8 -7 18 -4 23 7 12 12 5 22 -29z m-29 -12 c0 -5 -7 -17 -15 -28 -14
-18 -14 -17 -4 9 12 27 19 34 19 19z m59 -72 c0 -10 -3 -8 -9 5 -12 27 -12 43
0 25 5 -8 9 -22 9 -30z"/>
<path d="M1682 1653 c23 -49 35 -65 56 -79 13 -9 22 -11 18 -6 -3 6 -2 13 4
17 5 3 10 14 9 23 0 14 -2 13 -9 -3 -7 -16 -9 -17 -9 -3 -1 9 -14 26 -30 37
-30 22 -45 27 -39 14z"/>
<path d="M1411 1632 c-17 -6 16 -42 38 -42 13 0 13 -2 2 -9 -20 -13 25 -40 56
-35 29 6 83 32 83 40 0 4 -27 4 -60 2 -40 -3 -55 -1 -45 5 9 5 37 9 62 10 25
0 39 3 31 8 -17 9 -151 26 -167 21z"/>
<path d="M2185 1603 c-67 -20 -271 -25 -335 -8 -28 7 -50 12 -51 12 0 -1 -2
-24 -4 -52 -1 -27 -8 -68 -14 -90 -19 -69 -18 -71 57 -82 71 -11 237 -10 262
1 29 13 166 239 142 235 -4 -1 -29 -8 -57 -16z"/>
<path d="M3025 1580 c-5 -8 13 -32 45 -64 l52 -51 -38 55 c-50 73 -51 74 -59
60z"/>
<path d="M3020 1524 c30 -30 69 -65 85 -77 20 -14 14 -4 -18 29 -27 27 -56 61
-65 77 -9 15 -25 27 -36 27 -16 0 -9 -12 34 -56z"/>
<path d="M1543 1546 l-51 -22 47 -33 c52 -35 169 -86 178 -77 11 11 -95 157
-112 155 -5 -1 -33 -11 -62 -23z"/>
<path d="M2704 1425 c3 -20 32 -39 45 -30 5 3 22 0 38 -6 34 -13 160 -22 147
-10 -13 11 -142 50 -191 57 -35 5 -41 3 -39 -11z m36 -15 c8 -5 11 -10 5 -10
-5 0 -17 5 -25 10 -8 5 -10 10 -5 10 6 0 17 -5 25 -10z"/>
</g>
</svg>
